<svg xmlns="http://www.w3.org/2000/svg" viewBox="0 0 315 300"><path d="M280.344 206.351h.01c-32.935 38.024-106.59 84.335-123.348 91.413-16.755 7.08-14.282-4.506-13.597-8.478.4-2.377 2.239-13.491 2.239-13.491.531-4.022 1.077-10.252-.509-14.222-1.765-4.376-8.721-6.671-13.832-7.769C55.86 243.805.004 190.897.004 127.748.004 57.307 70.443-.006 157.006-.006c86.573 0 156.998 57.313 156.998 127.754 0 28.198-10.896 53.594-33.66 78.603z"/><path d="M253.185 121.872c4.537 0 8.223 3.697 8.223 8.257 0 4.545-3.686 8.252-8.223 8.252h-22.936v14.765h22.936c4.525 0 8.223 3.705 8.223 8.252 0 4.562-3.698 8.262-8.223 8.262h-31.167c-4.527 0-8.223-3.7-8.223-8.262V98.841c0-4.545 3.691-8.258 8.223-8.258h31.167c4.537 0 8.223 3.713 8.223 8.258 0 4.557-3.686 8.262-8.223 8.262h-22.936v14.769h22.936zm-50.426 39.526a8.233 8.233 0 01-8.233 8.262 8.221 8.221 0 01-6.57-3.306l-31.944-43.649v38.693c0 4.562-3.683 8.262-8.221 8.262-4.535 0-8.226-3.7-8.226-8.262V98.841a8.256 8.256 0 015.627-7.831 8.28 8.28 0 012.607-.427 8.219 8.219 0 016.567 3.311l31.944 43.665V98.841c0-4.545 3.69-8.258 8.226-8.258 4.537 0 8.223 3.713 8.223 8.258v62.557zm-75.022 0c0 4.562-3.686 8.262-8.218 8.262-4.533 0-8.219-3.7-8.219-8.262V98.841c0-4.545 3.686-8.258 8.219-8.258 4.532 0 8.218 3.713 8.218 8.258v62.557zm-32.23 8.262H64.343c-4.527 0-8.216-3.7-8.216-8.262V98.841c0-4.545 3.689-8.258 8.216-8.258 4.538 0 8.221 3.713 8.221 8.258v54.305h22.943c4.54 0 8.221 3.705 8.221 8.252 0 4.562-3.681 8.262-8.221 8.262z"/></svg>